# xmcd
# 
# Track frame offsets:
#     150
#     26395
#     45615
#     67350
#     92160
#     116145
#     138405
#     155605
#     172702
#     195290
#     217625
#     242632
#     269760
#     292025
#     309715
# 
# Disc length: 4469
# 
# Revision: 4
# Processed by: cddbd v1.5.2PL0 Copyright (c) Steve Scherf et al.
# Submitted via: fre:ac v1.0.31
# 
DISCID=d911730f
DTITLE=Vow Wow - Twin Best [CD1]
DYEAR=1996
DGENRE=Rock
TTITLE0=Break Down
TTITLE1=Diamond Night
TTITLE2=Beat Of Metal Motion
TTITLE3=Hurricane
TTITLE4=Love Walks
TTITLE5=U.S.A.
TTITLE6=Wanna Get Home
TTITLE7=Shot In The Dark
TTITLE8=Shock Waves
TTITLE9=Nightless City
TTITLE10=Signs Of The Times
TTITLE11=Don't Tell Me Lies
TTITLE12=Cry No More
TTITLE13=Don't Leave Me Now
TTITLE14=War Man
EXTD=YEAR: 1996
EXTT0=
EXTT1=
EXTT2=
EXTT3=
EXTT4=
EXTT5=
EXTT6=
EXTT7=
EXTT8=
EXTT9=
EXTT10=
EXTT11=
EXTT12=
EXTT13=
EXTT14=
PLAYORDER=
